# xmcd
#
# Track frame offsets:
#	150
#	24776
#	45933
#	67064
#	87727
#	102559
#	120192
#	132620
#	149520
#	163769
#	177256
#	192219
#	212322
#	231038
#	251478
#	263989
#	281286
#
# Disc length: 4041 seconds
#
# Revision: 0
# Processed by: cddbd v1.5.2PL0 Copyright (c) Steve Scherf et al.
# Submitted via: EasyCDDAExtractor 12.0.0.1
#
DISCID=ef0fc711
DTITLE=Various Artist - 101 Soul Anthems
DYEAR=2011
DGENRE=Soul
TTITLE0=Donny Hathaway - A Song For You
TTITLE1=Al Green - Let's Stay Together
TTITLE2=Rufus and Chaka Khan - Ain't Nobody
TTITLE3=Isaac Hayes - Theme From 'Shaft'
TTITLE4=Edwin Starr - War
TTITLE5=Labelle - Lady Marmalade
TTITLE6=Jean Knight - Mr Big Stuff
TTITLE7=The Detroit Spinners - Ghetto Child
TTITLE8=Clarence Carter - Patches
TTITLE9=Jimmy Ruffin - What Becomes Of A Broken Heart
TTITLE10=Bobby Womack - California Dreaming
TTITLE11=The Staple Singers - If You're Ready (Come Go With Me)
TTITLE12=Fatback Band - I Found Lovin'
TTITLE13=Maze w/ Frankie Beverly - Joy and Pain
TTITLE14=Betty Wright - Clean Up Woman
TTITLE15=Charles Wright and The Watts 103rd St Rhythm Band - Express Yourself
TTITLE16=Timmy Thomas - Why Can't We Live Together
EXTD=
EXTT0=
EXTT1=
EXTT2=
EXTT3=
EXTT4=
EXTT5=
EXTT6=
EXTT7=
EXTT8=
EXTT9=
EXTT10=
EXTT11=
EXTT12=
EXTT13=
EXTT14=
EXTT15=
EXTT16=
PLAYORDER=
